{
    "asset" : {
        "generator" : "Khronos glTF Blender I/O v0.9.36",
        "version" : "2.0"
    },
    "scene" : 0,
    "scenes" : [
        {
            "name" : "Scene",
            "nodes" : [
                0,
                1,
                3,
                4
            ]
        }
    ],
    "nodes" : [
        {
            "name" : "Light",
            "rotation" : [
                0.16907575726509094,
                0.7558803558349609,
                -0.27217137813568115,
                0.570947527885437
            ],
            "translation" : [
                -0.020760178565979004,
                0.4157973527908325,
                -0.5662322044372559
            ]
        },
        {
            "name" : "Camera",
            "rotation" : [
                0.35068467259407043,
                -0.6003895998001099,
                0.3296806216239929,
                0.6386417150497437
            ],
            "translation" : [
                -0.48161786794662476,
                0.3330964148044586,
                0.03790357708930969
            ]
        },
        {
            "mesh" : 0,
            "name" : "Icecream"
        },
        {
            "children" : [
                2
            ],
            "mesh" : 1,
            "name" : "Donut",
            "rotation" : [
                0,
                -0.9089590907096863,
                0,
                0.4168853163719177
            ],
            "translation" : [
                -0.006484301295131445,
                0.04475690424442291,
                -0.004901650827378035
            ]
        },
        {
            "mesh" : 2,
            "name" : "Plane",
            "translation" : [
                -0.01576506346464157,
                0.01927727460861206,
                0.007598431780934334
            ]
        }
    ],
    "materials" : [
        {
            "doubleSided" : true,
            "name" : "Material.002",
            "pbrMetallicRoughness" : {
                "baseColorFactor" : [
                    0.8000000715255737,
                    0.17025186121463776,
                    0.6909907460212708,
                    1
                ],
                "metallicFactor" : 0,
                "roughnessFactor" : 0.3888888955116272
            }
        },
        {
            "doubleSided" : true,
            "name" : "Material.003",
            "pbrMetallicRoughness" : {
                "baseColorFactor" : [
                    0.8000000715255737,
                    0.37584179639816284,
                    0.3189888596534729,
                    1
                ],
                "metallicFactor" : 0,
                "roughnessFactor" : 0.5
            }
        },
        {
            "doubleSided" : true,
            "name" : "Material.001",
            "pbrMetallicRoughness" : {
                "baseColorFactor" : [
                    0.8000000715255737,
                    0.2782464325428009,
                    0.6113953590393066,
                    1
                ],
                "metallicFactor" : 0,
                "roughnessFactor" : 0.5
            }
        }
    ],
    "meshes" : [
        {
            "name" : "Torus.003",
            "primitives" : [
                {
                    "attributes" : {
                        "POSITION" : 0,
                        "NORMAL" : 1,
                        "TEXCOORD_0" : 2
                    },
                    "indices" : 3,
                    "material" : 0
                }
            ]
        },
        {
            "name" : "Torus.002",
            "primitives" : [
                {
                    "attributes" : {
                        "POSITION" : 4,
                        "NORMAL" : 5,
                        "TEXCOORD_0" : 6
                    },
                    "indices" : 7,
                    "material" : 1
                }
            ]
        },
        {
            "name" : "Plane",
            "primitives" : [
                {
                    "attributes" : {
                        "POSITION" : 8,
                        "NORMAL" : 9,
                        "TEXCOORD_0" : 10
                    },
                    "indices" : 11,
                    "material" : 2
                }
            ]
        }
    ],
    "accessors" : [
        {
            "bufferView" : 0,
            "componentType" : 5126,
            "count" : 65452,
            "max" : [
                0.07041172683238983,
                0.03024362586438656,
                0.07598838955163956
            ],
            "min" : [
                -0.06959888339042664,
                -0.008738134987652302,
                -0.07325365394353867
            ],
            "type" : "VEC3"
        },
        {
            "bufferView" : 1,
            "componentType" : 5126,
            "count" : 65452,
            "type" : "VEC3"
        },
        {
            "bufferView" : 2,
            "componentType" : 5126,
            "count" : 65452,
            "type" : "VEC2"
        },
        {
            "bufferView" : 3,
            "componentType" : 5123,
            "count" : 367866,
            "type" : "SCALAR"
        },
        {
            "bufferView" : 4,
            "componentType" : 5126,
            "count" : 5145,
            "max" : [
                0.07005749642848969,
                0.026291081681847572,
                0.0741506889462471
            ],
            "min" : [
                -0.07083862274885178,
                -0.024622639641165733,
                -0.07261360436677933
            ],
            "type" : "VEC3"
        },
        {
            "bufferView" : 5,
            "componentType" : 5126,
            "count" : 5145,
            "type" : "VEC3"
        },
        {
            "bufferView" : 6,
            "componentType" : 5126,
            "count" : 5145,
            "type" : "VEC2"
        },
        {
            "bufferView" : 7,
            "componentType" : 5123,
            "count" : 29952,
            "type" : "SCALAR"
        },
        {
            "bufferView" : 8,
            "componentType" : 5126,
            "count" : 4,
            "max" : [
                1,
                0,
                1
            ],
            "min" : [
                -1,
                0,
                -1
            ],
            "type" : "VEC3"
        },
        {
            "bufferView" : 9,
            "componentType" : 5126,
            "count" : 4,
            "type" : "VEC3"
        },
        {
            "bufferView" : 10,
            "componentType" : 5126,
            "count" : 4,
            "type" : "VEC2"
        },
        {
            "bufferView" : 11,
            "componentType" : 5123,
            "count" : 6,
            "type" : "SCALAR"
        }
    ],
    "bufferViews" : [
        {
            "buffer" : 0,
            "byteLength" : 785424,
            "byteOffset" : 0
        },
        {
            "buffer" : 0,
            "byteLength" : 785424,
            "byteOffset" : 785424
        },
        {
            "buffer" : 0,
            "byteLength" : 523616,
            "byteOffset" : 1570848
        },
        {
            "buffer" : 0,
            "byteLength" : 735732,
            "byteOffset" : 2094464
        },
        {
            "buffer" : 0,
            "byteLength" : 61740,
            "byteOffset" : 2830196
        },
        {
            "buffer" : 0,
            "byteLength" : 61740,
            "byteOffset" : 2891936
        },
        {
            "buffer" : 0,
            "byteLength" : 41160,
            "byteOffset" : 2953676
        },
        {
            "buffer" : 0,
            "byteLength" : 59904,
            "byteOffset" : 2994836
        },
        {
            "buffer" : 0,
            "byteLength" : 48,
            "byteOffset" : 3054740
        },
        {
            "buffer" : 0,
            "byteLength" : 48,
            "byteOffset" : 3054788
        },
        {
            "buffer" : 0,
            "byteLength" : 32,
            "byteOffset" : 3054836
        },
        {
            "buffer" : 0,
            "byteLength" : 12,
            "byteOffset" : 3054868
        }
    ],
    "buffers" : [
        {
            "byteLength" : 3054880,
            "uri" : "data:application/octet-stream;base64,"
        }
    ]
}
